<?xml version="1.0" encoding="UTF-8"?>
<svg id="Calque_2" data-name="Calque 2" xmlns="http://www.w3.org/2000/svg" viewBox="0 0 931.49 431.1">
  <defs>
    <style>
      .cls-1, .cls-2 {
        stroke-width: 0px;
      }

      .cls-2 {
        fill: #0001f8;
      }
    </style>
  </defs>
  <g id="KasarBlueH">
    <g>
      <path class="cls-1" d="M338.34,196.93h40.55v59.34l56.36-59.34h48.11l-62.78,65.75,66.44,98.06h-47.2l-47.2-70.79-13.75,14.43v56.36h-40.55v-163.81Z"/>
      <path class="cls-1" d="M485.66,327.98c0-25.89,20.62-33.68,44.91-36.89,21.99-2.75,29.78-5.04,29.78-13.06,0-7.56-4.81-12.6-16.04-12.6-11.91,0-17.87,5.27-19.02,15.12h-34.37c.92-21.77,17.64-40.32,53.15-40.32,17.64,0,29.55,3.21,38.03,9.62,10.08,7.33,14.89,18.79,14.89,33.45v59.11c0,9.39.92,14.66,4.12,16.73v1.6h-36.2c-1.83-2.52-2.98-7.1-3.89-13.06h-.46c-6.87,9.85-17.18,16.04-34.82,16.04-23.37,0-40.09-12.6-40.09-35.74ZM561.26,318.82v-13.98c-4.81,2.52-11.68,4.35-19.25,6.19-14.43,3.21-20.39,6.87-20.39,15.81,0,9.39,6.87,13.06,16.04,13.06,13.98,0,23.6-8.48,23.6-21.08Z"/>
      <path class="cls-1" d="M608,322.71h35.28c1.37,11.68,9.16,17.41,21.54,17.41,11.23,0,18.33-4.12,18.33-11.68,0-10.54-14.21-11.68-29.78-14.43-20.39-3.44-42.16-8.94-42.16-36.43,0-24.74,22.91-37.57,50.63-37.57,33.22,0,51.09,14.43,52.92,37.57h-34.37c-1.37-10.54-8.48-13.75-18.79-13.75-9.16,0-16.27,3.44-16.27,10.77,0,8.25,13.29,9.39,28.18,12.14,20.62,3.44,44.91,8.71,44.91,38.72,0,25.66-22.68,38.95-53.38,38.95-34.37,0-55.9-15.81-57.05-41.7Z"/>
      <path class="cls-1" d="M726.22,327.98c0-25.89,20.62-33.68,44.91-36.89,21.99-2.75,29.78-5.04,29.78-13.06,0-7.56-4.81-12.6-16.04-12.6-11.91,0-17.87,5.27-19.02,15.12h-34.37c.92-21.77,17.64-40.32,53.15-40.32,17.64,0,29.55,3.21,38.03,9.62,10.08,7.33,14.89,18.79,14.89,33.45v59.11c0,9.39.92,14.66,4.12,16.73v1.6h-36.2c-1.83-2.52-2.98-7.1-3.89-13.06h-.46c-6.87,9.85-17.18,16.04-34.82,16.04-23.37,0-40.09-12.6-40.09-35.74ZM801.82,318.82v-13.98c-4.81,2.52-11.68,4.35-19.25,6.19-14.43,3.21-20.39,6.87-20.39,15.81,0,9.39,6.87,13.06,16.04,13.06,13.98,0,23.6-8.48,23.6-21.08Z"/>
      <path class="cls-1" d="M855.66,243.44h35.74v18.33h.69c8.25-13.98,17.87-20.16,32.08-20.16,3.44,0,5.73.23,7.33.92v32.08h-.92c-22.91-3.21-37.57,8.02-37.57,33.45v52.7h-37.34v-117.3Z"/>
    </g>
    <path class="cls-2" d="M256.3,176.61c-16.72-5.51-41.2,18.3-87.39,66.82l-9.84,10.36h0c-.12.12-.23.24-.35.37-.13.14-.26.27-.39.41l-.42.44-.34.37c-1.87,1.98-3.7,3.92-5.5,5.84l-.28.3-.17.18c-3.87,4.14-7.55,8.12-11.06,11.96l-.12.13s0,0,0,0c-47.91,52.42-63.11,76.79-73.99,72.18-18.92-8.03-2.76-86.47,9.76-128.34,6.84-22.86,25.79-86.23,44.36-84.67,15,1.26,17.89,43.02,38.5,120.85,3.39-3.57,6.66-7.02,9.84-10.36C129.38,87.46,138,4.02,117.02.14,92.08-4.48,49.01,107.72,26.53,197.11,2.72,291.8-13.14,421.11,15,430.63c12.27,4.15,25.33-17.22,128.63-131.02,7.91-8.71,15.15-16.65,21.54-23.63.21.74.42,1.49.64,2.24,19.36,67.29,44.5,153.39,70.08,152.41,24.04-.92,39.22-78.44,43.47-117.65.81-7.44,12.74-124.57-23.07-136.37ZM243.88,302.28c-2.57,19.46-11.74,58.15-25.73,58.82-9.02.43-21.54-14.89-43.44-95.53,2.13-2.31,4.1-4.46,5.91-6.43,24.65-25.8,38.53-36.04,49.06-31.73,18.56,7.58,16.89,54.44,14.19,74.87Z"/>
  </g>
</svg>