<?xml version="1.0" encoding="UTF-8"?>
<svg id="Calque_2" data-name="Calque 2" xmlns="http://www.w3.org/2000/svg" viewBox="0 0 932.49 433.1">
  <defs>
    <style>
      .cls-1, .cls-2 {
        stroke-width: 0px;
      }

      .cls-2 {
        fill: #fff;
      }
    </style>
  </defs>
  <g id="KasarTraceH">
    <g>
      <path class="cls-1" d="M339.34,197.93h40.55v59.34l56.36-59.34h48.11l-62.78,65.75,66.44,98.06h-47.2l-47.2-70.79-13.75,14.43v56.36h-40.55v-163.81Z"/>
      <path class="cls-1" d="M486.66,328.98c0-25.89,20.62-33.68,44.91-36.89,21.99-2.75,29.78-5.04,29.78-13.06,0-7.56-4.81-12.6-16.04-12.6-11.91,0-17.87,5.27-19.02,15.12h-34.37c.92-21.77,17.64-40.32,53.15-40.32,17.64,0,29.55,3.21,38.03,9.62,10.08,7.33,14.89,18.79,14.89,33.45v59.11c0,9.39.92,14.66,4.12,16.73v1.6h-36.2c-1.83-2.52-2.98-7.1-3.89-13.06h-.46c-6.87,9.85-17.18,16.04-34.82,16.04-23.37,0-40.09-12.6-40.09-35.74ZM562.26,319.82v-13.98c-4.81,2.52-11.68,4.35-19.25,6.19-14.43,3.21-20.39,6.87-20.39,15.81,0,9.39,6.87,13.06,16.04,13.06,13.98,0,23.6-8.48,23.6-21.08Z"/>
      <path class="cls-1" d="M609,323.71h35.28c1.37,11.68,9.16,17.41,21.54,17.41,11.23,0,18.33-4.12,18.33-11.68,0-10.54-14.21-11.68-29.78-14.43-20.39-3.44-42.16-8.94-42.16-36.43,0-24.74,22.91-37.57,50.63-37.57,33.22,0,51.09,14.43,52.92,37.57h-34.37c-1.37-10.54-8.48-13.75-18.79-13.75-9.16,0-16.27,3.44-16.27,10.77,0,8.25,13.29,9.39,28.18,12.14,20.62,3.44,44.91,8.71,44.91,38.72,0,25.66-22.68,38.95-53.38,38.95-34.37,0-55.9-15.81-57.05-41.7Z"/>
      <path class="cls-1" d="M727.22,328.98c0-25.89,20.62-33.68,44.91-36.89,21.99-2.75,29.78-5.04,29.78-13.06,0-7.56-4.81-12.6-16.04-12.6-11.91,0-17.87,5.27-19.02,15.12h-34.37c.92-21.77,17.64-40.32,53.15-40.32,17.64,0,29.55,3.21,38.03,9.62,10.08,7.33,14.89,18.79,14.89,33.45v59.11c0,9.39.92,14.66,4.12,16.73v1.6h-36.2c-1.83-2.52-2.98-7.1-3.89-13.06h-.46c-6.87,9.85-17.18,16.04-34.82,16.04-23.37,0-40.09-12.6-40.09-35.74ZM802.82,319.82v-13.98c-4.81,2.52-11.68,4.35-19.25,6.19-14.43,3.21-20.39,6.87-20.39,15.81,0,9.39,6.87,13.06,16.04,13.06,13.98,0,23.6-8.48,23.6-21.08Z"/>
      <path class="cls-1" d="M856.66,244.44h35.74v18.33h.69c8.25-13.98,17.87-20.16,32.08-20.16,3.44,0,5.73.23,7.33.92v32.08h-.92c-22.91-3.21-37.57,8.02-37.57,33.45v52.7h-37.34v-117.3Z"/>
    </g>
    <g>
      <path class="cls-2" d="M18.78,431.1c-.81,0-1.62-.14-2.46-.42-12.18-4.12-16.81-33.88-13.04-83.8,3.26-43.16,12.69-98.69,25.22-148.53C52.35,103.53,93.4,2,116.5,2c.45,0,.9.04,1.34.12,9.98,1.85,13.01,24.72,18.51,66.24,5.25,39.66,13.17,99.55,32.46,175.78-2.67,2.81-5.41,5.69-8.23,8.66-6.14-23.33-10.74-43.6-14.46-59.97-8.91-39.25-13.38-58.96-24.47-59.88-.25-.02-.51-.03-.76-.03-17.12,0-33.68,48.75-44.64,85.41-9.19,30.72-30.6,120.47-9.19,129.55.99.42,2.03.63,3.09.63,7.91,0,18.06-11.7,38.29-34.99,8.93-10.28,20.04-23.08,33.74-38.06l.12-.14c3.61-3.95,7.33-7.97,11.05-11.95l.45-.48c1.79-1.91,3.62-3.86,5.49-5.83l1.5-1.58,9.84-10.36c39.86-41.86,65.25-67.29,81.7-67.29,1.62,0,3.19.25,4.66.73,18.07,5.96,23.34,40.76,24.58,68.91,1.4,31.94-1.82,62.96-2.19,66.4-4.84,44.7-20.66,115.92-42.51,116.76-.13,0-.26,0-.4,0-25.04,0-51.31-91.29-68.69-151.7l-1.13-3.95-1.21,1.32c-6.39,6.98-13.63,14.92-21.54,23.63-28,30.84-49,54.49-65.89,73.49-39.36,44.31-51.25,57.68-59.23,57.68ZM225.8,226.46c-9.74,0-21.91,8.94-44.89,33-1.83,1.98-6.3,6.85-6.3,6.85l.14.53c23.17,85.33,35.7,96.28,44.04,96.28.14,0,.28,0,.41,0,6.62-.32,12.69-8.07,18.04-23.03,4.43-12.38,7.36-27.06,8.63-36.66,3.03-22.93,3.83-68.31-14.81-75.92-1.66-.68-3.44-1.02-5.26-1.02Z"/>
      <path class="cls-1" d="M116.5,3h0c.39,0,.78.04,1.16.1,9.27,1.72,12.44,25.68,17.7,65.39,5.24,39.59,13.14,99.33,32.35,175.36-2.16,2.27-4.36,4.58-6.61,6.96-5.91-22.58-10.37-42.24-13.99-58.2-9.02-39.73-13.54-59.67-25.36-60.66-.28-.02-.56-.04-.84-.04-17.59,0-33.61,46.03-45.6,86.13-5.88,19.66-13.36,50.26-16.74,77.19-3.96,31.58-1.23,49.61,8.11,53.57,1.11.47,2.28.71,3.48.71,8.36,0,17.98-11.07,39.04-35.33,8.92-10.28,20.03-23.07,33.71-38.04l.13-.14c3.63-3.97,7.34-7.99,11.05-11.95l.15-.17.29-.3c1.79-1.91,3.62-3.85,5.49-5.83l.34-.36.42-.44.02-.02h0l.72-.75,9.84-10.36c39.68-41.67,64.93-66.98,80.97-66.98,1.51,0,2.97.23,4.34.68,13.87,4.57,22.14,28.09,23.89,68.01,1.4,31.86-1.81,62.82-2.19,66.25-2.08,19.23-6.92,48.46-14.24,72.82-8.23,27.4-17.94,42.68-27.32,43.04-.12,0-.24,0-.36,0-10.26,0-22.13-16.77-35.28-49.86-12.12-30.48-23.39-69.64-32.44-101.11l-.48-1.69-.15-.54-.98-3.44-2.42,2.64c-7.16,7.82-14.41,15.77-21.55,23.63-28,30.84-49.01,54.49-65.89,73.49-38.11,42.9-50.95,57.35-58.49,57.35-.7,0-1.4-.12-2.14-.37-7.37-2.49-10.63-15.28-12.08-25.57-1.99-14.14-2.08-33.39-.28-57.2,3.25-43.11,12.67-98.57,25.2-148.36,11.43-45.44,27.58-94.45,43.22-131.12C90.17,26.5,106.13,3,116.5,3M218.79,364.12c.15,0,.31,0,.46-.01,7.06-.34,13.43-8.31,18.93-23.69,4.46-12.45,7.4-27.21,8.68-36.87,1.43-10.86,2.42-27.78.88-42.72-1.97-19.12-7.45-30.65-16.3-34.26-1.79-.73-3.68-1.1-5.64-1.1-11.48,0-25.97,12.74-45.64,33.33-1.82,1.97-3.79,4.12-5.92,6.43l-.75.81.29,1.06c23.21,85.49,35.77,97.01,45,97.01M116.5,1c-25.14-.01-66.94,109.51-88.97,197.11C3.72,292.8-12.14,422.11,16,431.63c.91.31,1.82.48,2.78.48,11.93,0,30.21-26.13,125.86-131.49,7.91-8.71,15.15-16.65,21.54-23.63.21.74.42,1.49.64,2.24,19.25,66.91,44.22,152.42,69.65,152.42.15,0,.29,0,.43,0,24.04-.92,39.22-78.44,43.47-117.65.81-7.44,12.74-124.57-23.07-136.37-1.58-.52-3.24-.78-4.97-.78-16.58,0-40.6,23.68-82.42,67.6l-9.84,10.36h0c-.12.12-.23.24-.35.37-.13.14-.26.27-.39.41l-.42.44-.34.37c-1.87,1.98-3.7,3.92-5.5,5.84l-.28.3-.17.18c-3.87,4.14-7.55,8.12-11.06,11.96l-.12.13s0,0,0,0c-44.09,48.24-60.48,72.73-71.29,72.73-.94,0-1.83-.18-2.7-.55-18.92-8.03-2.76-86.47,9.76-128.34,6.75-22.58,25.33-84.7,43.68-84.7.23,0,.45,0,.67.03,15,1.26,17.89,43.02,38.5,120.85,3.39-3.57,6.66-7.02,9.84-10.36C130.38,88.46,139,5.02,118.02,1.14c-.5-.09-1.01-.14-1.52-.14h0ZM218.79,362.12c-9,0-21.47-15.98-43.07-95.54,2.13-2.31,4.1-4.46,5.91-6.43,21.02-22,34.21-32.69,44.17-32.69,1.72,0,3.34.32,4.89.95,18.56,7.58,16.89,54.44,14.19,74.87-2.57,19.46-11.74,58.15-25.73,58.82-.12,0-.24,0-.37,0h0Z"/>
    </g>
  </g>
</svg>