<?xml version="1.0" encoding="UTF-8"?>
<svg id="Calque_2" data-name="Calque 2" xmlns="http://www.w3.org/2000/svg" viewBox="0 0 501.18 766.41">
  <defs>
    <style>
      .cls-1 {
        fill: #0001f8;
        stroke-width: 0px;
      }
    </style>
  </defs>
  <g id="Blue_Logo" data-name="Blue Logo">
    <path id="Blue_Trace" data-name="Blue Trace" class="cls-1" d="M455.65,313.98c-29.73-9.8-73.24,32.54-155.37,118.79l-17.49,18.41h0c-.21.22-.41.43-.62.66-.23.24-.46.48-.69.73l-.74.78-.61.65c-3.33,3.51-6.58,6.97-9.77,10.38l-.5.53-.29.32c-6.88,7.35-13.43,14.44-19.66,21.26l-.22.24s0,0,0,0c-85.17,93.19-112.2,136.52-131.54,128.32-33.63-14.27-4.91-153.73,17.35-228.17,12.15-40.64,45.84-153.3,78.86-150.53,26.66,2.24,31.8,76.48,68.44,214.84,6.02-6.35,11.85-12.48,17.5-18.41C230.01,155.48,245.33,7.15,208.04.25,163.7-7.97,87.14,191.51,47.17,350.43,4.83,518.77-23.37,748.65,26.66,765.57c21.82,7.38,45.03-30.62,228.69-232.92,14.06-15.49,26.94-29.6,38.29-42,.38,1.32.75,2.64,1.14,3.98,34.42,119.63,79.12,272.7,124.59,270.95,42.74-1.64,69.73-139.44,77.28-209.16,1.43-13.23,22.64-221.45-41.01-242.43ZM433.57,537.4c-4.56,34.59-20.86,103.38-45.74,104.58-16.04.77-38.29-26.47-77.22-169.83,3.78-4.11,7.29-7.92,10.51-11.43,43.83-45.86,68.5-64.06,87.21-56.42,32.99,13.48,30.03,96.78,25.23,133.1Z"/>
  </g>
</svg>