<?xml version="1.0" encoding="UTF-8"?>
<svg id="Calque_2" data-name="Calque 2" xmlns="http://www.w3.org/2000/svg" viewBox="0 0 505.18 770.41">
  <defs>
    <style>
      .cls-1, .cls-2 {
        stroke-width: 0px;
      }

      .cls-2 {
        fill: #fff;
      }
    </style>
  </defs>
  <g id="Black_Trace" data-name="Black Trace">
    <g>
      <path class="cls-2" d="M33.6,766.42c-1.42,0-2.83-.24-4.3-.74-21.54-7.29-29.72-60.11-23.03-148.75,5.79-76.73,22.55-175.42,44.84-264.02,20.33-80.85,49.09-168.07,76.92-233.32C170.92,19.02,196.13,4,207.34,4c.79,0,1.58.07,2.34.21,17.59,3.26,22.97,43.86,32.72,117.57,9.33,70.5,23.42,176.94,57.68,312.41-4.63,4.87-9.39,9.87-14.27,15.01-10.87-41.3-19.01-77.21-25.6-106.22-15.86-69.89-23.82-104.97-43.7-106.64-.46-.04-.91-.06-1.37-.06-15.04,0-30.87,20.1-48.4,61.45-13.88,32.73-25.13,70.35-31.17,90.55-10.43,34.89-23.71,89.19-29.7,136.97-6.94,55.38-2.4,86.87,13.49,93.61,1.78.76,3.66,1.14,5.58,1.14,14.16,0,32.23-20.81,68.24-62.28,15.87-18.28,35.62-41.02,59.98-67.67l1.12-1.22c6.2-6.78,12.5-13.58,18.75-20.26l.79-.85c3.19-3.4,6.44-6.86,9.77-10.37l20.16-21.22c70.83-74.39,115.93-119.55,145.08-119.55,2.86,0,5.62.43,8.21,1.29,32.01,10.55,41.34,72.34,43.54,122.31,2.49,56.74-3.23,111.9-3.89,118.01-8.6,79.39-36.67,205.89-75.37,207.37-.23,0-.46.01-.69.01h0c-18.93,0-40.53-30.15-64.17-89.62-21.58-54.25-41.62-123.92-57.73-179.9l-2.11-7.41-2.42,2.64c-12.72,13.89-25.6,28.02-38.3,42.01-49.77,54.82-87.12,96.86-117.12,130.64-69.94,78.72-91.05,102.48-105.14,102.48ZM401.65,402.61c-17.39,0-39.06,15.92-79.97,58.73-3.25,3.53-6.76,7.34-10.54,11.46l-.75.81.29,1.07c41.23,151.85,63.61,171.32,78.5,171.32.25,0,.5,0,.75-.02,11.86-.57,22.72-14.39,32.27-41.09,7.88-22.02,13.1-48.13,15.35-65.23,2.54-19.22,4.28-49.16,1.56-75.58-3.43-33.38-12.86-53.44-28.02-59.63-2.99-1.22-6.16-1.84-9.44-1.84Z"/>
      <path class="cls-1" d="M207.33,6s0,0,0,0c.67,0,1.34.06,1.97.18,16.17,2.99,21.79,45.48,31.1,115.87,9.31,70.36,23.36,176.49,57.45,311.56-3.6,3.79-7.28,7.66-11.04,11.61-10.4-39.81-18.27-74.5-24.67-102.68-16.08-70.84-24.14-106.4-45.48-108.19-.51-.04-1.02-.06-1.53-.06-31.56,0-60.13,82-81.49,153.43-10.46,34.96-23.77,89.39-29.77,137.3-3.15,25.17-3.94,45.78-2.33,61.23,1.99,19.18,7.56,30.46,17.02,34.47,2.03.86,4.17,1.3,6.36,1.3,15.07,0,32.2-19.73,69.75-62.97,15.86-18.27,35.61-41.01,59.93-67.62l.24-.26c6.45-7.05,13.05-14.19,19.64-21.24l.27-.29.51-.54c3.17-3.39,6.45-6.87,9.76-10.37l.6-.64.67-.71,1.38-1.45,17.49-18.41c70.46-74,115.29-118.93,143.63-118.93,2.64,0,5.19.4,7.58,1.19,24.48,8.07,39.06,49.73,42.16,120.5,2.49,56.6-3.22,111.62-3.88,117.7-3.7,34.17-12.29,86.1-25.3,129.38-14.58,48.51-31.68,75.57-48.16,76.21-.21,0-.41.01-.62.01-9.24,0-19.44-8.03-30.31-23.88-10.04-14.64-20.81-36.33-32-64.48-21.54-54.16-41.57-123.78-57.66-179.72-.28-.97-.55-1.93-.83-2.89l-.31-1.08-1.96-6.88-4.83,5.28c-12.74,13.91-25.63,28.05-38.3,42.02-49.77,54.83-87.13,96.87-117.14,130.65-67.66,76.15-90.45,101.81-103.65,101.81-1.2,0-2.4-.21-3.66-.63-10.19-3.45-17.52-19.04-21.18-45.1-3.53-25.11-3.7-59.3-.5-101.6,5.78-76.62,22.52-175.19,44.78-263.68,20.31-80.76,49.03-167.87,76.81-233.03,15.2-35.64,29.58-63.66,42.74-83.3,17.21-25.68,28.38-31.07,34.73-31.07M389.18,647.99c.28,0,.56,0,.84-.02,12.75-.61,24.21-14.88,34.06-42.41,7.93-22.17,13.18-48.44,15.45-65.64,2.55-19.33,4.3-49.46,1.56-76.05-3.52-34.17-13.36-54.79-29.25-61.28-3.23-1.32-6.66-1.99-10.2-1.99-18.01,0-40.08,16.09-81.41,59.35l-.03.03-.02.03c-3.23,3.5-6.74,7.32-10.52,11.43l-1.49,1.62.58,2.13c17.83,65.68,33.2,111.05,46.97,138.7,11.59,23.27,22.22,34.1,33.46,34.1M207.34,2c-44.69-.02-119,194.68-158.17,350.42C6.83,520.77-21.37,750.65,28.66,767.57c1.62.55,3.24.84,4.94.84,21.2,0,53.7-46.45,223.75-233.77,14.06-15.49,26.94-29.6,38.29-42,.38,1.32.75,2.64,1.14,3.98,34.22,118.95,78.61,270.97,123.82,270.97.26,0,.51,0,.77-.01,42.74-1.64,69.73-139.44,77.28-209.16,1.43-13.23,22.64-221.45-41.01-242.43-2.81-.93-5.75-1.39-8.84-1.39-29.48,0-72.18,42.09-146.53,120.17l-17.49,18.41h0c-.21.22-.41.43-.62.66-.23.24-.46.48-.69.73l-.74.78-.61.65c-3.33,3.51-6.58,6.97-9.77,10.38l-.5.53-.29.32c-6.88,7.35-13.43,14.44-19.66,21.26l-.22.24h0c-78.38,85.76-107.52,129.3-126.74,129.3-1.66,0-3.25-.33-4.8-.98-33.63-14.27-4.91-153.73,17.35-228.17,12.01-40.15,45.03-150.58,77.66-150.58.4,0,.8.02,1.2.05,26.66,2.24,31.8,76.48,68.44,214.84,6.02-6.35,11.85-12.48,17.5-18.41C232.01,157.48,247.33,9.15,210.04,2.25c-.89-.16-1.79-.25-2.7-.25h0ZM389.18,643.99c-16,0-38.17-28.41-76.57-169.85,3.78-4.11,7.29-7.92,10.51-11.43,37.38-39.11,60.82-58.11,78.52-58.11,3.05,0,5.94.57,8.69,1.69,32.99,13.48,30.03,96.78,25.23,133.1-4.56,34.59-20.86,103.38-45.74,104.58-.22.01-.43.02-.65.02h0Z"/>
    </g>
  </g>
</svg>