<?xml version="1.0" encoding="utf-8"?><!-- Uploaded to: SVG Repo, www.svgrepo.com, Generator: SVG Repo Mixer Tools -->
<svg width="800px" height="800px" viewBox="0 0 32 32" xmlns="http://www.w3.org/2000/svg" fill="none"><path fill="#0A66C2" d="M2 11.9556C2 8.47078 2 6.7284 2.67818 5.39739C3.27473 4.22661 4.22661 3.27473 5.39739 2.67818C6.7284 2 8.47078 2 11.9556 2H20.0444C23.5292 2 25.2716 2 26.6026 2.67818C27.7734 3.27473 28.7253 4.22661 29.3218 5.39739C30 6.7284 30 8.47078 30 11.9556V20.0444C30 23.5292 30 25.2716 29.3218 26.6026C28.7253 27.7734 27.7734 28.7253 26.6026 29.3218C25.2716 30 23.5292 30 20.0444 30H11.9556C8.47078 30 6.7284 30 5.39739 29.3218C4.22661 28.7253 3.27473 27.7734 2.67818 26.6026C2 25.2716 2 23.5292 2 20.0444V11.9556Z"/>
  <path fill="white" d="M12.6 10.9C12.6 11.9 11.8 12.7 10.7 12.7C9.6 12.7 8.8 11.9 8.8 10.9C8.8 9.9 9.6 9.1 10.7 9.1C11.8 9.1 12.6 9.9 12.6 10.9ZM8.9 13.8H12.4V22.9H8.9V13.8ZM14.3 13.8H17.7V15.3C18.3 14.3 19.4 13.6 21 13.6C23.6 13.6 24.7 15.5 24.7 18.3V22.9H21.2V18.9C21.2 17.3 20.8 16.3 19.6 16.3C18.2 16.3 17.8 17.4 17.8 18.9V22.9H14.3V13.8Z"/></svg>

  