<?xml version="1.0" encoding="UTF-8"?>
<svg id="Calque_2" data-name="Calque 2" xmlns="http://www.w3.org/2000/svg" viewBox="0 0 593.15 734.41">
  <defs>
    <style>
      .cls-1, .cls-2 {
        stroke-width: 0px;
      }

      .cls-2 {
        fill: #0001f8;
      }
    </style>
  </defs>
  <g id="KasarBlueV">
    <g>
      <path class="cls-1" d="M0,566.93h40.55v59.34l56.36-59.34h48.11l-62.78,65.75,66.44,98.06h-47.2l-47.2-70.79-13.75,14.43v56.36H0v-163.81Z"/>
      <path class="cls-1" d="M147.32,697.98c0-25.89,20.62-33.68,44.91-36.89,21.99-2.75,29.78-5.04,29.78-13.06,0-7.56-4.81-12.6-16.04-12.6-11.91,0-17.87,5.27-19.02,15.12h-34.37c.92-21.77,17.64-40.32,53.15-40.32,17.64,0,29.55,3.21,38.03,9.62,10.08,7.33,14.89,18.79,14.89,33.45v59.11c0,9.39.92,14.66,4.12,16.73v1.6h-36.2c-1.83-2.52-2.98-7.1-3.89-13.06h-.46c-6.87,9.85-17.18,16.04-34.82,16.04-23.37,0-40.09-12.6-40.09-35.74ZM222.92,688.82v-13.98c-4.81,2.52-11.68,4.35-19.25,6.19-14.43,3.21-20.39,6.87-20.39,15.81,0,9.39,6.87,13.06,16.04,13.06,13.98,0,23.6-8.48,23.6-21.08Z"/>
      <path class="cls-1" d="M269.66,692.71h35.28c1.37,11.68,9.16,17.41,21.54,17.41,11.23,0,18.33-4.12,18.33-11.68,0-10.54-14.21-11.68-29.78-14.43-20.39-3.44-42.16-8.94-42.16-36.43,0-24.74,22.91-37.57,50.63-37.57,33.22,0,51.09,14.43,52.92,37.57h-34.37c-1.37-10.54-8.48-13.75-18.79-13.75-9.16,0-16.27,3.44-16.27,10.77,0,8.25,13.29,9.39,28.18,12.14,20.62,3.44,44.91,8.71,44.91,38.72,0,25.66-22.68,38.95-53.38,38.95-34.37,0-55.9-15.81-57.05-41.7Z"/>
      <path class="cls-1" d="M387.88,697.98c0-25.89,20.62-33.68,44.91-36.89,21.99-2.75,29.78-5.04,29.78-13.06,0-7.56-4.81-12.6-16.04-12.6-11.91,0-17.87,5.27-19.02,15.12h-34.37c.92-21.77,17.64-40.32,53.15-40.32,17.64,0,29.55,3.21,38.03,9.62,10.08,7.33,14.89,18.79,14.89,33.45v59.11c0,9.39.92,14.66,4.12,16.73v1.6h-36.2c-1.83-2.52-2.98-7.1-3.89-13.06h-.46c-6.87,9.85-17.18,16.04-34.82,16.04-23.37,0-40.09-12.6-40.09-35.74ZM463.48,688.82v-13.98c-4.81,2.52-11.68,4.35-19.25,6.19-14.43,3.21-20.39,6.87-20.39,15.81,0,9.39,6.87,13.06,16.04,13.06,13.98,0,23.6-8.48,23.6-21.08Z"/>
      <path class="cls-1" d="M517.32,613.44h35.74v18.33h.69c8.25-13.98,17.87-20.16,32.08-20.16,3.44,0,5.73.23,7.33.92v32.08h-.92c-22.91-3.21-37.57,8.02-37.57,33.45v52.7h-37.34v-117.3Z"/>
    </g>
    <path id="Blue_Trace" data-name="Blue Trace" class="cls-2" d="M430.64,211.59c-20.04-6.6-49.36,21.93-104.7,80.05l-11.79,12.41h0c-.14.15-.28.29-.42.44-.16.16-.31.33-.46.49l-.5.52-.41.44c-2.24,2.37-4.44,4.7-6.58,6.99l-.34.36-.2.21c-4.63,4.95-9.05,9.73-13.25,14.33l-.15.16s0,0,0,0c-57.4,62.8-75.61,92.01-88.64,86.48-22.66-9.61-3.31-103.6,11.69-153.77,8.19-27.39,30.89-103.31,53.14-101.44,17.97,1.51,21.43,51.54,46.12,144.78,4.06-4.28,7.98-8.41,11.79-12.41C278.58,104.78,288.91,4.82,263.78.17c-29.88-5.53-81.48,128.89-108.41,235.99-28.53,113.45-47.53,268.37-13.82,279.77,14.7,4.97,30.35-20.63,154.11-156.97,9.48-10.44,18.15-19.95,25.81-28.31.25.89.51,1.78.77,2.68,23.2,80.62,53.32,183.78,83.97,182.6,28.8-1.11,46.99-93.97,52.08-140.95.97-8.92,15.26-149.24-27.63-163.38ZM415.76,362.16c-3.08,23.31-14.06,69.67-30.82,70.48-10.81.52-25.81-17.84-52.04-114.45,2.55-2.77,4.91-5.34,7.09-7.7,29.54-30.91,46.16-43.17,58.77-38.02,22.23,9.08,20.23,65.22,17.01,89.7Z"/>
  </g>
</svg>