<?xml version="1.0" encoding="UTF-8"?>
<svg id="Calque_2" data-name="Calque 2" xmlns="http://www.w3.org/2000/svg" viewBox="0 0 593.15 735.41">
  <defs>
    <style>
      .cls-1, .cls-2 {
        stroke-width: 0px;
      }

      .cls-2 {
        fill: #fff;
      }
    </style>
  </defs>
  <g id="KasarTraceV">
    <g>
      <path class="cls-1" d="M0,567.93h40.55v59.34l56.36-59.34h48.11l-62.78,65.75,66.44,98.06h-47.2l-47.2-70.79-13.75,14.43v56.36H0v-163.81Z"/>
      <path class="cls-1" d="M147.32,698.98c0-25.89,20.62-33.68,44.91-36.89,21.99-2.75,29.79-5.04,29.79-13.06,0-7.56-4.81-12.6-16.04-12.6-11.91,0-17.87,5.27-19.02,15.12h-34.37c.92-21.77,17.64-40.32,53.15-40.32,17.64,0,29.55,3.21,38.03,9.62,10.08,7.33,14.89,18.79,14.89,33.45v59.11c0,9.39.92,14.66,4.12,16.73v1.6h-36.2c-1.83-2.52-2.98-7.1-3.89-13.06h-.46c-6.87,9.85-17.18,16.04-34.82,16.04-23.37,0-40.1-12.6-40.1-35.74ZM222.92,689.82v-13.98c-4.81,2.52-11.69,4.35-19.25,6.19-14.43,3.21-20.39,6.87-20.39,15.81,0,9.39,6.87,13.06,16.04,13.06,13.98,0,23.6-8.48,23.6-21.08Z"/>
      <path class="cls-1" d="M269.66,693.71h35.28c1.37,11.68,9.16,17.41,21.54,17.41,11.23,0,18.33-4.12,18.33-11.68,0-10.54-14.21-11.68-29.79-14.43-20.39-3.44-42.16-8.94-42.16-36.43,0-24.74,22.91-37.57,50.63-37.57,33.22,0,51.09,14.43,52.93,37.57h-34.37c-1.38-10.54-8.48-13.75-18.79-13.75-9.16,0-16.27,3.44-16.27,10.77,0,8.25,13.29,9.39,28.18,12.14,20.62,3.44,44.91,8.71,44.91,38.72,0,25.66-22.68,38.95-53.38,38.95-34.37,0-55.9-15.81-57.05-41.7Z"/>
      <path class="cls-1" d="M387.88,698.98c0-25.89,20.62-33.68,44.91-36.89,21.99-2.75,29.78-5.04,29.78-13.06,0-7.56-4.81-12.6-16.04-12.6-11.91,0-17.87,5.27-19.02,15.12h-34.37c.92-21.77,17.64-40.32,53.15-40.32,17.64,0,29.55,3.21,38.03,9.62,10.08,7.33,14.89,18.79,14.89,33.45v59.11c0,9.39.92,14.66,4.12,16.73v1.6h-36.2c-1.83-2.52-2.98-7.1-3.89-13.06h-.46c-6.87,9.85-17.18,16.04-34.82,16.04-23.37,0-40.09-12.6-40.09-35.74ZM463.48,689.82v-13.98c-4.81,2.52-11.68,4.35-19.24,6.19-14.43,3.21-20.39,6.87-20.39,15.81,0,9.39,6.87,13.06,16.04,13.06,13.98,0,23.6-8.48,23.6-21.08Z"/>
      <path class="cls-1" d="M517.32,614.44h35.74v18.33h.69c8.25-13.98,17.87-20.16,32.07-20.16,3.44,0,5.73.23,7.33.92v32.08h-.92c-22.91-3.21-37.57,8.02-37.57,33.45v52.7h-37.35v-117.3Z"/>
    </g>
    <g>
      <path class="cls-2" d="M145,516.05c-1,0-1.98-.17-3-.52-14.67-4.96-20.26-40.66-15.74-100.51,3.9-51.68,15.19-118.16,30.2-177.83C185.02,123.61,234.24,2,261.98,2c.55,0,1.1.05,1.64.15,12.09,2.24,15.72,29.67,22.31,79.46,6.29,47.49,15.78,119.21,38.88,210.5-3.3,3.46-6.68,7.03-10.17,10.7-7.4-28.07-12.93-52.46-17.4-72.13-10.64-46.9-15.98-70.43-29.11-71.54-.3-.03-.59-.04-.89-.04-20.36,0-40.14,58.27-53.25,102.1-7.02,23.49-15.96,60.03-19.99,92.18-4.65,37.11-1.66,58.2,8.87,62.67,1.16.49,2.38.74,3.62.74,9.37,0,21.51-13.98,45.69-41.82,10.69-12.31,23.99-27.63,40.39-45.57l.15-.16c4.36-4.77,8.81-9.58,13.23-14.31l.54-.57c2.14-2.29,4.34-4.62,6.58-6.98l2.18-2.3,11.4-11.99c47.75-50.15,78.17-80.61,97.94-80.61,1.96,0,3.86.3,5.64.88,21.74,7.16,28.07,48.91,29.55,82.67,1.68,38.23-2.18,75.4-2.62,79.51-5.8,53.57-24.8,138.93-51.08,139.94-.16,0-.32,0-.48,0-12.9,0-27.55-20.38-43.53-60.56-14.53-36.55-28.03-83.47-38.88-121.17l-1.25-4.4-1.21,1.32c-8.65,9.44-17.32,18.96-25.79,28.29-33.51,36.91-58.66,65.22-78.86,87.96-47.17,53.09-61.41,69.12-71.05,69.12ZM392.82,271.09c-11.6,0-26.12,10.69-53.59,39.44-2.19,2.37-4.55,4.94-7.09,7.71l-.37.41.14.53c27.7,102.02,42.62,115.1,52.52,115.1.16,0,.33,0,.49-.01,18.44-.89,29.16-51.76,31.74-71.29,3.61-27.4,4.59-81.61-17.6-90.68-1.97-.8-4.06-1.21-6.23-1.21Z"/>
      <path class="cls-1" d="M261.98,3h0c.49,0,.98.04,1.45.13,11.38,2.11,15.19,30.9,21.5,78.61,6.28,47.42,15.75,118.99,38.76,210.08-2.78,2.93-5.63,5.92-8.55,9-7.16-27.32-12.56-51.1-16.93-70.36-10.75-47.37-16.14-71.15-30-72.31-.33-.03-.65-.04-.97-.04-20.79,0-39.89,54.95-54.21,102.82-7.03,23.52-15.98,60.12-20.02,92.33-4.71,37.61-1.53,59.05,9.48,63.71,1.28.54,2.63.82,4.01.82,9.83,0,21.3-13.21,46.44-42.16,10.68-12.3,23.98-27.62,40.37-45.55l.16-.17c4.35-4.76,8.8-9.57,13.23-14.31l.19-.2.34-.36c2.14-2.29,4.33-4.61,6.57-6.98l.41-.43.5-.52.14-.15h0s.74-.78.74-.78l11.78-12.4c47.57-49.96,77.85-80.3,97.21-80.3,1.85,0,3.64.28,5.32.83,16.78,5.53,26.76,33.8,28.87,81.76,1.68,38.16-2.17,75.26-2.62,79.36-2.5,23.04-8.29,58.05-17.06,87.24-10.05,33.45-21.48,51.36-33.06,51.81-.15,0-.3,0-.44,0-12.45,0-26.79-20.16-42.6-59.93-14.51-36.5-28.01-83.39-38.85-121.07-.19-.68-.39-1.35-.58-2.02l-.19-.65-.98-3.44-2.42,2.64c-8.6,9.39-17.28,18.91-25.79,28.29-33.51,36.92-58.66,65.22-78.87,87.97-45.71,51.45-61.11,68.78-70.31,68.78-.88,0-1.76-.15-2.68-.46-7.13-2.41-12.22-13.11-14.72-30.93-2.38-16.96-2.5-40.03-.34-68.56,3.9-51.63,15.18-118.04,30.17-177.66,13.68-54.41,33.03-113.11,51.76-157.01,10.25-24.03,19.95-42.94,28.84-56.2,9.31-13.89,17.59-21.23,23.96-21.23M384.42,435.27c.18,0,.36,0,.53-.01,8.28-.4,15.78-9.85,22.31-28.1,5.32-14.88,8.85-32.51,10.37-44.05,1.71-12.98,2.89-33.2,1.05-51.04-2.34-22.73-8.82-36.42-19.27-40.69-2.09-.85-4.31-1.29-6.61-1.29-13.6,0-30.87,15.21-54.34,39.77-2.17,2.36-4.54,4.93-7.08,7.7l-.75.81.29,1.06c12,44.18,22.33,74.69,31.58,93.26,7.67,15.4,14.63,22.58,21.91,22.58M261.98,1c-30.09-.01-80.13,131.08-106.5,235.95-28.51,113.35-47.49,268.14-13.81,279.53,1.09.37,2.18.57,3.33.57,14.28,0,36.16-31.28,150.66-157.4,9.47-10.43,18.14-19.93,25.78-28.28.25.89.51,1.78.76,2.68,23.04,80.09,52.93,182.45,83.37,182.45.17,0,.35,0,.52-.01,28.78-1.11,46.95-93.89,52.04-140.83.96-8.91,15.25-149.11-27.61-163.24-1.9-.62-3.87-.93-5.95-.93-19.85,0-48.6,28.34-98.66,80.92l-11.78,12.4h0c-.14.15-.28.29-.42.44-.16.16-.31.33-.46.49l-.5.52-.41.44c-2.24,2.37-4.43,4.7-6.58,6.99l-.34.36-.2.21c-4.63,4.95-9.04,9.72-13.24,14.32l-.15.16s0,0,0,0c-52.78,57.75-72.4,87.06-85.34,87.06-1.12,0-2.19-.22-3.23-.66-22.64-9.61-3.31-103.51,11.68-153.64,8.08-27.03,30.32-101.39,52.29-101.39.27,0,.54.01.81.03,17.95,1.51,21.41,51.5,46.08,144.66,4.05-4.27,7.98-8.4,11.78-12.4C278.59,105.69,288.91,5.82,263.8,1.17c-.6-.11-1.21-.17-1.82-.17h0ZM384.42,433.27c-10.77,0-25.7-19.13-51.56-114.36,2.54-2.77,4.91-5.34,7.08-7.69,25.17-26.34,40.95-39.13,52.87-39.13,2.06,0,4,.38,5.85,1.14,22.21,9.07,20.22,65.17,16.99,89.62-3.07,23.29-14.05,69.61-30.8,70.42-.15,0-.29.01-.44.01h0Z"/>
    </g>
  </g>
</svg>