<?xml version="1.0" encoding="UTF-8"?>
<svg id="Calque_2" data-name="Calque 2" xmlns="http://www.w3.org/2000/svg" viewBox="0 0 593.15 734.41">
  <defs>
    <style>
      .cls-1 {
        fill: #fff;
        stroke-width: 0px;
      }
    </style>
  </defs>
  <g id="KasarWhiteV">
    <g>
      <path class="cls-1" d="M0,566.93h40.55v59.34l56.36-59.34h48.11l-62.78,65.75,66.44,98.06h-47.2l-47.2-70.79-13.75,14.43v56.36H0v-163.81Z"/>
      <path class="cls-1" d="M147.32,697.98c0-25.89,20.62-33.68,44.91-36.89,21.99-2.75,29.78-5.04,29.78-13.06,0-7.56-4.81-12.6-16.04-12.6-11.91,0-17.87,5.27-19.02,15.12h-34.37c.92-21.77,17.64-40.32,53.15-40.32,17.64,0,29.55,3.21,38.03,9.62,10.08,7.33,14.89,18.79,14.89,33.45v59.11c0,9.39.92,14.66,4.12,16.73v1.6h-36.2c-1.83-2.52-2.98-7.1-3.89-13.06h-.46c-6.87,9.85-17.18,16.04-34.82,16.04-23.37,0-40.09-12.6-40.09-35.74ZM222.92,688.82v-13.98c-4.81,2.52-11.68,4.35-19.25,6.19-14.43,3.21-20.39,6.87-20.39,15.81,0,9.39,6.87,13.06,16.04,13.06,13.98,0,23.6-8.48,23.6-21.08Z"/>
      <path class="cls-1" d="M269.66,692.71h35.28c1.37,11.68,9.16,17.41,21.54,17.41,11.23,0,18.33-4.12,18.33-11.68,0-10.54-14.21-11.68-29.78-14.43-20.39-3.44-42.16-8.94-42.16-36.43,0-24.74,22.91-37.57,50.63-37.57,33.22,0,51.09,14.43,52.92,37.57h-34.37c-1.37-10.54-8.48-13.75-18.79-13.75-9.16,0-16.27,3.44-16.27,10.77,0,8.25,13.29,9.39,28.18,12.14,20.62,3.44,44.91,8.71,44.91,38.72,0,25.66-22.68,38.95-53.38,38.95-34.37,0-55.9-15.81-57.05-41.7Z"/>
      <path class="cls-1" d="M387.88,697.98c0-25.89,20.62-33.68,44.91-36.89,21.99-2.75,29.78-5.04,29.78-13.06,0-7.56-4.81-12.6-16.04-12.6-11.91,0-17.87,5.27-19.02,15.12h-34.37c.92-21.77,17.64-40.32,53.15-40.32,17.64,0,29.55,3.21,38.03,9.62,10.08,7.33,14.89,18.79,14.89,33.45v59.11c0,9.39.92,14.66,4.12,16.73v1.6h-36.2c-1.83-2.52-2.98-7.1-3.89-13.06h-.46c-6.87,9.85-17.18,16.04-34.82,16.04-23.37,0-40.09-12.6-40.09-35.74ZM463.48,688.82v-13.98c-4.81,2.52-11.68,4.35-19.25,6.19-14.43,3.21-20.39,6.87-20.39,15.81,0,9.39,6.87,13.06,16.04,13.06,13.98,0,23.6-8.48,23.6-21.08Z"/>
      <path class="cls-1" d="M517.32,613.44h35.74v18.33h.69c8.25-13.98,17.87-20.16,32.08-20.16,3.44,0,5.73.23,7.33.92v32.08h-.92c-22.91-3.21-37.57,8.02-37.57,33.45v52.7h-37.34v-117.3Z"/>
    </g>
    <path class="cls-1" d="M430.53,211.41c-20.02-6.6-49.32,21.91-104.61,79.98l-11.78,12.4h0c-.14.15-.28.29-.42.44-.16.16-.31.33-.46.49l-.5.52-.41.44c-2.24,2.37-4.43,4.7-6.58,6.99l-.34.36-.2.21c-4.63,4.95-9.04,9.72-13.24,14.32l-.15.16s0,0,0,0c-57.35,62.75-75.55,91.93-88.57,86.4-22.64-9.61-3.31-103.51,11.68-153.64,8.18-27.37,30.87-103.22,53.1-101.36,17.95,1.51,21.41,51.5,46.08,144.66,4.05-4.27,7.98-8.4,11.78-12.4C278.6,104.69,288.91,4.82,263.8.17c-29.86-5.53-81.41,128.78-108.32,235.79-28.51,113.35-47.49,268.14-13.81,279.53,14.69,4.97,30.32-20.62,153.98-156.84,9.47-10.43,18.14-19.93,25.78-28.28.25.89.51,1.78.76,2.68,23.18,80.55,53.27,183.62,83.89,182.44,28.78-1.11,46.95-93.89,52.04-140.83.96-8.91,15.25-149.11-27.61-163.24ZM415.66,361.85c-3.07,23.29-14.05,69.61-30.8,70.42-10.8.52-25.78-17.82-52-114.35,2.54-2.77,4.91-5.34,7.08-7.69,29.51-30.88,46.12-43.14,58.72-37.99,22.21,9.07,20.22,65.17,16.99,89.62Z"/>
  </g>
</svg>